<?xml version="1.0" encoding="utf-8"?>
<!-- Generator: Adobe Illustrator 24.0.1, SVG Export Plug-In . SVG Version: 6.00 Build 0)  -->
<svg version="1.1" id="Layer_1" xmlns="http://www.w3.org/2000/svg" xmlns:xlink="http://www.w3.org/1999/xlink" x="0px" y="0px"
	 viewBox="0 0 128 128" style="enable-background:new 0 0 128 128;" xml:space="preserve">
<style type="text/css">
	.st0{fill:#FFFFFF;}
</style>
<g>
	<g>
		<path class="st0" d="M44,0c-3.1,0-5.9,1.2-8,3.1C33.9,1.2,31.1,0,28,0s-5.9,1.2-8,3.1C17.9,1.2,15.1,0,12,0C5.4,0,0,5.4,0,12v32
			c0,9.7,5.1,14.7,9.2,18.8C13,66.6,16,69.7,16,76v40c0,6.6,5.4,12,12,12s12-5.4,12-12V76c0-6.3,3-9.4,6.8-13.2
			C50.9,58.7,56,53.7,56,44V12C56,5.4,50.6,0,44,0z M48,44c0,6.3-3,9.4-6.8,13.2C37.1,61.3,32,66.3,32,76v40c0,2.2-1.8,4-4,4
			s-4-1.8-4-4V76c0-9.7-5.1-14.7-9.2-18.8C11,53.4,8,50.3,8,44V12c0-2.2,1.8-4,4-4s4,1.8,4,4v24c0,2.2,1.8,4,4,4s4-1.8,4-4V12
			c0-2.2,1.8-4,4-4s4,1.8,4,4v24c0,2.2,1.8,4,4,4s4-1.8,4-4V12c0-2.2,1.8-4,4-4s4,1.8,4,4V44z M118.8,65.2C115,61.4,112,58.3,112,52
			V12c0-6.6-5.4-12-12-12S88,5.4,88,12v40c0,6.3-3,9.4-6.8,13.2C77.1,69.3,72,74.3,72,84c0,1.8,0.3,44,28,44s28-42.2,28-44
			C128,74.3,122.9,69.3,118.8,65.2z M100,120c-19.7,0-20-35.6-20-36c0-6.3,3-9.4,6.8-13.2C90.9,66.7,96,61.7,96,52V12
			c0-2.2,1.8-4,4-4s4,1.8,4,4v40c0,9.7,5.1,14.7,9.2,18.8c3.8,3.8,6.8,6.8,6.8,13.2C120,84.4,119.8,120,100,120z"/>
	</g>
</g>
</svg>
