<svg width="345" height="406" viewBox="0 0 345 406" fill="none" xmlns="http://www.w3.org/2000/svg">
<g clip-path="url(#clip0)">
<path d="M297.214 381.436C294.679 384.153 292.73 385.654 294.05 390.417C295.694 396.349 287.262 398.406 287.359 391.344C287.449 384.775 293.199 383.7 297.214 381.437L297.214 381.436Z" fill="#9F6E25" stroke="#9F6E25" stroke-width="0.3" stroke-linecap="round" stroke-linejoin="round"/>
<path d="M285.81 388.991C282.86 392.151 280.592 393.897 282.128 399.439C284.041 406.34 274.228 408.733 274.341 400.516C274.445 392.875 281.137 391.625 285.81 388.991L285.81 388.991Z" fill="#9F6E25" stroke="#9F6E25" stroke-width="0.3" stroke-linecap="round" stroke-linejoin="round"/>
<path d="M324.847 372.715C325.549 373.373 327.346 380.289 320.217 379.888C314.313 379.556 314.631 368.471 320.438 367.425C323.076 366.951 326.209 367.318 328.667 369.919C332.97 374.472 331.486 382.18 326.574 385.332C320.04 389.525 310.031 385.953 305.399 379.357C299.295 370.665 303.795 358.512 308.594 352.913C329.592 326.666 325.827 319.419 324.846 315.266" stroke="#EEBF45" stroke-linecap="round" stroke-linejoin="round"/>
<path d="M253.383 385.088C252.864 386.238 245.063 391.398 242.554 382.371C240.477 374.893 254.33 370.597 258.07 377.371C259.769 380.448 260.635 384.496 258.452 388.651C254.631 395.925 244.388 397.44 238.496 392.573C229.326 385.001 231.454 373.857 238.366 364.609C246.705 353.457 268.044 356.075 270.864 357.038C277.389 359.243 285.286 362.186 295.372 362.219" stroke="#EEBF45" stroke-linecap="round" stroke-linejoin="round"/>
<path d="M294.876 340.248C294.657 339.267 289.399 333.994 285.992 340.628C283.17 346.122 293.288 351.693 297.294 347.014C299.113 344.888 300.44 341.872 299.404 338.284C297.591 332.002 289.889 329.265 284.464 332.025C277.248 335.695 275.343 346.844 280.62 353.39C283.961 357.534 287.582 359.277 293.654 361.257C296.261 361.865 298.984 361.797 301.879 361.54" stroke="#EEBF45" stroke-linecap="round" stroke-linejoin="round"/>
<path d="M279.464 243.131C278.692 243.774 271.309 244.747 272.654 237.412C273.769 231.336 285.184 233.091 285.507 239.243C285.653 242.037 284.864 245.236 281.855 247.449C276.587 251.322 268.814 248.794 266.198 243.298C262.717 235.988 268.054 226.177 276.181 224.021C281.428 222.629 290.358 225.233 291.804 226.85C293.684 227.954 296.058 231.784 298.186 234.252" stroke="#9F6E25" stroke-linecap="round" stroke-linejoin="round"/>
<path d="M319.803 214.58C320.923 214.608 328.065 210.534 321.812 205.264C316.633 200.899 307.845 209.937 311.819 215.317C313.624 217.76 316.528 219.925 320.695 219.79C327.989 219.553 333.05 212.28 331.541 205.93C329.534 197.484 321.52 192.72 312.283 194.317C300.111 196.424 294.175 209.957 293.593 218.156C292.836 223.98 294.239 226.804 298.562 234.631" stroke="#9F6E25" stroke-linecap="round" stroke-linejoin="round"/>
<path d="M136.161 367.688C136.736 368.151 142.191 368.797 141.144 363.439C140.276 359 131.865 360.389 131.674 364.895C131.587 366.943 132.192 369.278 134.429 370.87C138.346 373.658 144.063 371.737 145.953 367.69C148.467 362.307 145.198 354.407 139.198 352.889C132.808 351.272 123.177 360.088 118.765 363.621C100.313 378.399 90.5959 361.469 97.5106 351.757C101.907 345.581 115.968 343.339 132.492 344.957" stroke="#EEBF45" stroke-linecap="round" stroke-linejoin="round"/>
<path d="M47.4907 369.16C47.31 369.555 44.5919 371.327 43.718 368.227C42.9941 365.659 47.8206 364.184 49.1238 366.51C49.7157 367.567 50.0176 368.957 49.2571 370.384C47.9257 372.882 44.0581 373.311 42.304 371.731C39.9387 369.6 39.8772 364.512 43.1348 362.216C53.1356 355.168 69.0396 354.407 92.2913 352.903" stroke="#EEBF45" stroke-linecap="round" stroke-linejoin="round"/>
<path d="M305.101 313.864C304.665 314.225 300.497 314.77 301.256 310.656C301.885 307.248 308.331 308.232 308.513 311.683C308.595 313.251 308.15 315.045 306.451 316.286C303.477 318.459 298.843 316.745 297.611 313.958C295.967 310.241 298.57 303.947 303.247 303.145C312.081 301.629 324.087 313.235 325.393 315.987" stroke="#EEBF45" stroke-linecap="round" stroke-linejoin="round"/>
<path d="M337.054 336.543C337.463 340.235 337.331 342.692 341.805 344.794C347.376 347.412 343.443 355.149 338.148 350.473C333.224 346.125 336.155 341.063 337.054 336.543L337.054 336.543Z" fill="#9F6E25" stroke="#EEBF45" stroke-width="0.3" stroke-linecap="round" stroke-linejoin="round"/>
<path d="M335.354 350.115C335.829 354.412 335.676 357.271 340.881 359.716C347.362 362.761 342.784 371.765 336.624 366.326C330.896 361.267 334.307 355.377 335.354 350.115L335.354 350.115Z" fill="#9F6E25" stroke="#EEBF45" stroke-width="0.3" stroke-linecap="round" stroke-linejoin="round"/>
<path d="M338.599 98.999C338.758 95.2871 338.461 92.8451 342.783 90.4459C348.165 87.4583 343.719 80.0043 338.752 85.0263C334.132 89.6964 337.398 94.5492 338.599 98.9993L338.599 98.999Z" fill="#EEBF45" stroke="#EEBF45" stroke-width="0.3" stroke-linecap="round" stroke-linejoin="round"/>
<path d="M335.988 85.5681C336.172 81.2489 335.826 78.4072 340.855 75.6164C347.116 72.1414 341.941 63.4669 336.162 69.309C330.788 74.7421 334.589 80.3902 335.988 85.5679L335.988 85.5681Z" fill="#EEBF45" stroke="#EEBF45" stroke-width="0.3" stroke-linecap="round" stroke-linejoin="round"/>
<path d="M303.651 115.643C303.189 121.55 311.706 120.571 310.527 114.136C309.551 108.805 300.084 110.399 299.207 115.731C298.785 118.299 299.79 121.622 302.329 123.283C306.92 126.287 314.117 124.142 316.21 119.305C318.731 113.474 312.571 105.435 309.011 101.511C285.969 76.1096 327.631 67.6635 323.813 98.8715C322.344 110.877 276.041 132.597 271.241 186.241" stroke="#EEBF45" stroke-linecap="round" stroke-linejoin="round"/>
<path d="M261.363 215.712C272.575 216.3 285.912 220.645 295.551 230.225C261.558 195.732 280.518 188.563 261.631 172.101" stroke="#EEBF45" stroke-linecap="round"/>
<path d="M308.76 151.925C292.7 164.728 288.938 158.448 287.017 178.499C285.926 189.885 283.083 202.903 295.056 229.188C259.797 191.511 294.007 171.981 287.733 152.441" stroke="#EEBF45" stroke-linecap="round"/>
<path d="M303.385 171.002C296.843 171.85 292.336 175.602 287.152 179.048" stroke="#EEBF45"/>
<path d="M290.364 164.736C300.295 142.571 315.518 137.908 329.308 110.185C341.298 72.7155 303.673 56.1835 284.05 74.3081C281.47 76.6905 271.004 91.2669 265.881 94.7915" stroke="#EEBF45" stroke-linecap="round"/>
<path d="M309.147 298.745C346.103 287.861 305.356 248.276 292.174 226.845L294.466 228.034C316.847 253.335 343.768 289.247 309.147 298.741L309.147 298.745Z" fill="#EEBF45" stroke="#EEBF45" stroke-width="0.3" stroke-linejoin="round"/>
<path d="M294.244 97.4178C280.39 74.4562 308.163 66.5465 315.896 69.8752C314.747 69.3112 324.178 75.4716 323.018 74.3353C317.784 69.2096 315.538 65.6721 307.984 66.2767C292.499 68.3023 281.062 88.1468 294.244 97.4171L294.244 97.4178Z" fill="#EEBF45" stroke="#EEBF45" stroke-width="0.2"/>
<path d="M313.28 68.7368C285.002 49.8423 285.921 37.6777 283.589 28.3786" stroke="#EEBF45" stroke-linecap="round"/>
<path d="M283.324 75.0129C273.232 78.2142 265.706 75.5709 260.088 70.5995" stroke="#EEBF45" stroke-linejoin="round"/>
<path d="M28.1301 349.405C75.6002 349.228 148.846 358.585 160.443 363.344C360.8 434.14 359.327 292.989 289.447 293.466" stroke="#EEBF45" stroke-linecap="round"/>
<path d="M267.581 342.184C270.959 342.926 275.662 346.4 278.879 350.425" stroke="#EEBF45" stroke-linecap="round"/>
<path d="M325.415 316.105C334.087 337.332 320.788 361.185 295.277 362.216" stroke="#EEBF45"/>
<path d="M331.626 334.506C324.117 385.51 238.122 387.677 223.697 332.351" stroke="#EEBF45" stroke-linecap="round"/>
<path d="M331.758 332.447C315.146 396.831 239.964 362.093 234.198 352.856C197.761 334.341 173.835 349.297 173.051 370.496C172.621 382.129 191.919 400.223 205.799 382.63C184.746 398.575 174.03 374.447 176.571 362.986C180.843 343.715 212.714 340.109 235.074 353.82C239.268 366.694 310.802 399.647 331.972 334.812L331.758 332.447Z" fill="#EEBF45" stroke="#EEBF45" stroke-width="0.2"/>
<path d="M103.668 333.521C113.433 343.742 144.932 345.82 165.018 353.507C235.455 380.466 264.941 381.266 287.976 379.515" stroke="#EEBF45"/>
<path d="M176.185 338.821C184.16 349.324 199.965 360.449 228.118 373.876" stroke="#EEBF45" stroke-linecap="round"/>
<path d="M224.403 330.254C233.12 327.984 235.128 324.203 234.954 320.844C232.8 319.545 226.065 320.955 224.403 330.254Z" fill="#9F6E25" stroke="#9F6E25" stroke-width="0.4" stroke-linecap="round" stroke-linejoin="round"/>
<path d="M223.133 323.08C217.967 314.199 217.138 305.33 222.856 304.963C227.726 304.49 228.741 312.816 223.133 323.08Z" fill="#9F6E25" stroke="#9F6E25"/>
<path d="M221.666 330.116C212.951 327.836 210.948 324.053 211.126 320.694C213.281 319.397 220.015 320.815 221.666 330.116Z" fill="#9F6E25" stroke="#9F6E25" stroke-width="0.4" stroke-linecap="round" stroke-linejoin="round"/>
<path d="M259.415 168.137C262.821 159.797 260.996 155.924 258.202 154.051C255.871 154.997 252.965 161.235 259.415 168.137Z" fill="#9F6E25" stroke="#EEBF45" stroke-width="0.4" stroke-linecap="round" stroke-linejoin="round"/>
<path d="M252.911 164.855C242.705 163.671 235.107 159.021 238.238 154.223C240.777 150.04 248.052 154.216 252.911 164.855Z" fill="#9F6E25" stroke="#EEBF45"/>
<path d="M257.664 170.246C250.618 175.857 246.389 175.195 243.806 173.04C244.059 170.537 249.228 165.995 257.664 170.246Z" fill="#9F6E25" stroke="#EEBF45" stroke-width="0.4" stroke-linecap="round" stroke-linejoin="round"/>
<path d="M84.6887 352.281L74.5941 345.214" stroke="#EEBF45"/>
<path d="M73.4709 347.878C59.698 341.459 51.3558 341.72 45.2247 344.023C45.4714 342.293 47.0197 336.939 59.1028 339.632C56.2759 337.366 51.7569 336.269 48.0783 334.423C46.7213 333.741 42.6632 329.192 41.2675 327.233C43.2795 327.354 48.7764 327.095 50.3116 327.857C54.4088 329.893 58.0607 333.939 62.326 335.421C53.213 326.431 56.4306 323.693 57.8105 321.295C59.7539 331.082 69.569 337.063 76.9416 344.101C77.8115 347.418 77.3911 347.901 73.4707 347.878L73.4709 347.878Z" fill="#EEBF45" stroke="#9F6E25" stroke-width="0.2" stroke-linecap="round" stroke-linejoin="round"/>
<path d="M257.346 71.0501C247.834 62.8972 241.152 61.2532 235.772 61.7212C236.351 60.4022 238.769 56.4946 247.767 61.3139C246.025 58.8874 242.68 57.0138 240.169 54.7312C239.242 53.8891 237.029 49.3761 236.356 47.5111C237.927 48.0531 242.349 49.0672 243.399 50.0135C246.201 52.5391 248.203 56.5626 251.261 58.6854C246.019 49.5245 249.182 48.0654 250.81 46.4662C250.181 54.6693 256.648 61.597 260.94 68.821C260.895 71.6479 260.454 71.9387 257.346 71.0501L257.346 71.0501Z" fill="#EEBF45" stroke="#9F6E25" stroke-width="0.2" stroke-linecap="round" stroke-linejoin="round"/>
<path d="M312.188 148.062C311.09 139.122 313.866 135.863 317.054 134.788C319.055 136.313 320.223 143.094 312.188 148.062Z" fill="#EEBF45" stroke="#9F6E25" stroke-width="0.4" stroke-linecap="round" stroke-linejoin="round"/>
<path d="M319.326 146.602C329.485 148.136 338.036 145.642 336.273 140.191C334.92 135.489 326.805 137.61 319.326 146.602Z" fill="#EEBF45" stroke="#9F6E25"/>
<path d="M313.324 150.557C318.652 157.82 322.907 158.29 325.964 156.888C326.377 154.407 322.58 148.668 313.324 150.557Z" fill="#EEBF45" stroke="#9F6E25" stroke-width="0.4" stroke-linecap="round" stroke-linejoin="round"/>
<path d="M327.367 284.624C315.094 298.646 309.912 275.379 319.321 269.071C331.841 262.116 313.201 249.506 307.676 266.712C304.267 275.994 306.214 282.364 311.506 290.501C315.446 295.962 317.557 302.302 314.22 314.415C311.995 322.418 302.547 322.875 301.826 322.896C291.69 323.19 291.693 316.026 290.928 313.103C290.264 305.854 295.221 301.347 298.863 300.284C310.431 296.906 307.623 298.338 311.062 298.205L311.563 300.166C308.087 299.654 301.941 299.537 299.482 300.965C295.049 303.541 292.232 306.64 292.167 313.104C291.692 322.92 309.291 326.085 313.29 314.415C315.137 304.085 309.121 296.29 305.436 287.34C301.16 278.266 303.648 268.686 305.633 263.552C312.608 250.555 330.958 260.433 325.331 266.907C310.289 285.068 317.759 292.837 327.367 284.625L327.367 284.624Z" fill="#9F6E25" stroke="#EEBF45" stroke-width="0.2"/>
<path d="M103.808 333.644C99.8983 334.279 95.6686 332.631 96.1912 326.919C95.5879 326.76 94.7609 326.736 94.2399 326.825C95.9161 330.221 91.2747 334.244 87.9814 330.229C84.0499 326.625 80.6373 328.261 77.6993 328.366C79.9839 323.306 84.1211 324.373 87.9841 324.53C90.3466 323.729 88.9598 321.038 87.2425 321.06C81.9923 322.567 79.8378 316.497 80.0598 314.119C80.5502 309.768 79.7486 309.024 79.3816 307.397C81.6291 308.507 84.1416 308.472 86.6289 308.546C92.5398 309.005 92.6618 312.851 92.9438 316.603C93.3465 319.117 95.8226 318.841 95.9171 316.852C95.6476 313.423 93.7266 310.304 99.9487 306.509C100.162 309.554 99.4359 314.91 101.168 315.848C104.015 317.647 105.073 323.927 98.299 323.513C98.3327 323.981 98.3397 324.731 98.6388 325.279C103.125 324.679 105.133 329.482 103.808 333.644L103.808 333.644Z" fill="#D8A628" stroke="#EEBF45" stroke-width="0.2"/>
<path d="M267.9 342.097C265.536 345.275 261.352 347.036 257.75 342.571C257.207 342.878 256.596 343.436 256.284 343.862C259.851 345.133 259.32 351.253 254.161 350.663C248.83 350.812 247.518 354.362 245.482 356.483C243.6 351.26 247.313 349.146 250.196 346.569C251.334 344.35 248.466 343.384 247.248 344.595C244.528 349.332 238.755 346.473 237.259 344.611C234.583 341.146 233.489 341.17 232.093 340.258C234.48 339.49 236.259 337.716 238.096 336.038C242.659 332.253 245.424 334.929 248.238 337.426C250.277 338.951 251.862 337.029 250.546 335.535C247.965 333.261 244.414 332.359 246.24 325.303C248.513 327.341 251.72 331.691 253.616 331.159C256.913 330.468 262.043 334.241 256.892 338.659C257.242 338.971 257.77 339.505 258.365 339.69C261.169 336.136 265.954 338.187 267.899 342.098L267.9 342.097Z" fill="#D8A628" stroke="#EEBF45" stroke-width="0.2"/>
<path d="M302.967 170.812C304.03 174.628 307.301 177.776 312.267 174.906C312.664 175.387 313.033 176.127 313.171 176.638C309.385 176.54 307.679 182.441 312.706 183.747C317.626 185.804 317.573 189.588 318.71 192.299C322.345 188.103 319.641 184.795 317.878 181.354C317.614 178.873 320.638 179.004 321.339 180.572C322.173 185.97 328.587 185.38 330.653 184.181C334.397 181.91 335.408 182.326 337.039 181.977C335.088 180.402 334.066 178.107 332.956 175.88C330.06 170.707 326.518 172.209 322.994 173.527C320.542 174.216 319.754 171.852 321.52 170.932C324.746 169.739 328.384 170.174 329.219 162.934C326.364 164.017 321.808 166.923 320.229 165.745C317.402 163.914 311.258 165.588 314.475 171.564C314.036 171.729 313.352 172.038 312.729 171.996C311.392 167.672 306.189 167.864 302.967 170.813L302.967 170.812Z" fill="#D8A628" stroke="#EEBF45" stroke-width="0.2"/>
<path d="M288.271 153.665C290.848 150.263 291.411 145.405 285.708 143.021C285.862 142.366 286.256 141.567 286.603 141.115C288.991 144.424 295.163 142.034 293.001 136.873C291.552 131.312 294.831 128.888 296.412 126.143C290.442 125.766 289.372 130.244 287.573 134.002C285.619 135.847 283.756 133.17 284.643 131.546C288.726 127.306 284.032 122.194 281.656 121.205C277.265 119.478 276.961 118.339 275.597 117.17C275.521 119.87 274.22 122.244 273.037 124.65C270.493 130.51 274.093 132.565 277.523 134.726C279.715 136.378 278.202 138.596 276.261 137.683C273.131 135.697 271.13 132.295 264.379 136.306C267.171 138.045 272.637 140.054 272.657 142.176C272.933 145.795 278.38 149.969 281.402 143.31C281.83 143.578 282.541 143.963 282.912 144.524C280.078 148.494 283.639 152.828 288.271 153.665L288.271 153.665Z" fill="#D8A628" stroke="#EEBF45" stroke-width="0.2"/>
<path d="M26.7638 347.935C25.1802 339.067 21.5671 336.771 18.2042 336.682C16.7414 338.729 17.6224 345.553 26.7638 347.935Z" fill="#EEBF45" stroke="#9F6E25" stroke-width="0.4" stroke-linecap="round" stroke-linejoin="round"/>
<path d="M19.5126 348.642C10.256 353.1 1.34948 353.235 1.42858 347.506C1.33665 342.614 9.7168 342.251 19.5126 348.642Z" fill="#EEBF45" stroke="#9F6E25"/>
<path d="M26.4125 350.653C23.4607 359.163 19.5329 360.866 16.1979 360.426C15.0732 358.177 17.0113 351.574 26.4125 350.653Z" fill="#EEBF45" stroke="#9F6E25" stroke-width="0.4" stroke-linecap="round" stroke-linejoin="round"/>
<path d="M287.111 295.925C271.938 296.759 264.705 300.922 260.384 305.844C259.786 304.202 258.627 298.75 270.552 295.428C266.991 294.763 262.489 295.926 258.374 296.032C256.856 296.071 251.132 293.972 248.978 292.903C250.809 292.061 255.534 289.24 257.248 289.189C261.821 289.052 266.949 290.899 271.409 290.194C259.134 286.563 260.681 282.632 260.767 279.866C267.096 287.581 278.571 288.228 288.391 290.958C290.722 293.473 290.579 294.098 287.111 295.926L287.111 295.925Z" fill="#EEBF45" stroke="#9F6E25" stroke-width="0.2" stroke-linecap="round" stroke-linejoin="round"/>
<path d="M259.025 218.031C243.853 218.865 236.62 223.028 232.298 227.95C231.7 226.308 230.541 220.857 242.466 217.534C238.905 216.869 234.403 218.033 230.288 218.138C228.77 218.177 223.046 216.079 220.892 215.01C222.723 214.167 227.448 211.347 229.162 211.296C233.735 211.159 238.863 213.005 243.323 212.301C231.048 208.67 232.595 204.738 232.681 201.973C239.01 209.688 250.485 210.334 260.305 213.065C262.636 215.58 262.493 216.205 259.025 218.032L259.025 218.031Z" fill="#EEBF45" stroke="#9F6E25" stroke-width="0.2" stroke-linecap="round" stroke-linejoin="round"/>
<path d="M263.437 94.5463C257.132 88.1125 252.853 88.2513 250.025 90.0731C249.97 92.5878 254.543 97.7295 263.437 94.5463Z" fill="#EEBF45" stroke="#EEBF45" stroke-width="0.4" stroke-linecap="round" stroke-linejoin="round"/>
<path d="M257.844 99.2158C252.709 108.114 245.427 113.244 242.264 108.467C239.432 104.477 246.151 99.4553 257.844 99.2158Z" fill="#EEBF45" stroke="#EEBF45"/>
<path d="M264.678 96.9902C267.035 105.684 264.749 109.304 261.746 110.82C259.549 109.595 257.43 103.048 264.678 96.9902Z" fill="#EEBF45" stroke="#EEBF45" stroke-width="0.4" stroke-linecap="round" stroke-linejoin="round"/>
<path d="M284.689 26.6381C293.141 23.5237 294.768 19.5638 294.265 16.2376C291.994 15.1564 285.43 17.2207 284.689 26.6381Z" fill="#9F6E25" stroke="#9F6E25" stroke-width="0.4" stroke-linecap="round" stroke-linejoin="round"/>
<path d="M282.721 19.6233C276.708 11.2922 275.013 2.54749 280.667 1.62059C285.467 0.672032 287.294 8.85853 282.721 19.6233Z" fill="#9F6E25" stroke="#9F6E25"/>
<path d="M281.951 26.769C273.054 25.3557 270.69 21.7874 270.537 18.4271C272.555 16.9252 279.395 17.6753 281.951 26.769Z" fill="#9F6E25" stroke="#9F6E25" stroke-width="0.4" stroke-linecap="round" stroke-linejoin="round"/>
<path d="M172.595 339.005C161.724 328.389 153.766 325.873 147.218 326.016C148.024 324.465 151.258 319.926 161.768 326.467C159.851 323.393 155.95 320.862 153.09 317.902C152.036 316.81 149.713 311.173 149.044 308.863C150.903 309.643 156.176 311.218 157.372 312.446C160.564 315.724 162.67 320.751 166.204 323.561C160.582 312.061 164.524 310.544 166.62 308.737C165.214 318.615 172.495 327.508 177.121 336.591C176.844 340.009 176.287 340.326 172.595 339.005L172.595 339.005Z" fill="#EEBF45" stroke="#9F6E25" stroke-width="0.2" stroke-linecap="round" stroke-linejoin="round"/>
</g>
<defs>
<clipPath id="clip0">
<rect width="344.33" height="404.82" fill="white" transform="translate(345.233 405.902) rotate(-179.973)"/>
</clipPath>
</defs>
</svg>
