<svg width="345" height="405" viewBox="0 0 345 405" fill="none" xmlns="http://www.w3.org/2000/svg">
<g clip-path="url(#clip0)">
<path d="M48.031 24.4429C50.5644 21.7254 52.5126 20.2235 51.1904 15.4604C49.5439 9.5295 57.9742 7.4683 57.8808 14.5312C57.7939 21.0997 52.0447 22.177 48.031 24.4429V24.4429Z" fill="#9F6E25" stroke="#9F6E25" stroke-width="0.3" stroke-linecap="round" stroke-linejoin="round"/>
<path d="M59.431 16.8831C62.3796 13.7216 64.6472 11.9743 63.1082 6.43311C61.1919 -0.466694 71.0039 -2.86479 70.8951 5.35211C70.794 12.9938 64.1025 14.2471 59.4311 16.8831H59.431Z" fill="#9F6E25" stroke="#9F6E25" stroke-width="0.3" stroke-linecap="round" stroke-linejoin="round"/>
<path d="M20.402 33.178C19.6998 32.5201 17.8993 25.6048 25.0282 26.0023C30.933 26.3315 30.62 37.4173 24.8134 38.4653C22.1758 38.9411 19.0425 38.5756 16.5834 35.9759C12.2785 31.4247 13.7581 23.7159 18.6689 20.5619C25.2014 16.3656 35.2119 19.9322 39.8469 26.5262C45.9547 35.216 41.4608 47.3702 36.6643 52.9722C15.6793 79.2292 19.4473 86.4742 20.4303 90.6272" stroke="#EEBF45" stroke-linecap="round" stroke-linejoin="round"/>
<path d="M91.86 20.771C92.3782 19.6201 100.177 14.4562 102.69 23.4828C104.771 30.9595 90.92 35.2618 87.177 28.49C85.4765 25.4139 84.6082 21.3657 86.789 17.21C90.6069 9.93462 100.849 8.41422 106.744 13.2781C115.917 20.8461 113.795 31.9911 106.887 41.2421C98.5531 52.3981 77.2131 49.7901 74.3921 48.8291C67.8661 46.6271 59.9681 43.6881 49.8821 43.6601" stroke="#EEBF45" stroke-linecap="round" stroke-linejoin="round"/>
<path d="M50.388 65.631C50.6084 66.6109 55.8687 71.8819 59.2725 65.2467C62.0919 59.7508 51.9713 54.1847 47.9675 58.8659C46.1488 60.9922 44.824 64.0092 45.8614 67.597C47.6775 73.8781 55.3807 76.6111 60.8044 73.8489C68.019 70.1746 69.9185 59.0249 64.6382 52.4819C61.2955 48.3396 57.6738 46.5978 51.6002 44.6208C48.9934 44.0137 46.2705 44.0834 43.3753 44.3417" stroke="#EEBF45" stroke-linecap="round" stroke-linejoin="round"/>
<path d="M65.847 162.74C66.6186 162.097 74.0011 161.121 72.6593 168.456C71.548 174.532 60.1313 172.782 59.8063 166.631C59.6589 163.837 60.4458 160.637 63.4539 158.423C68.7199 154.548 76.4939 157.072 79.1129 162.566C82.5969 169.875 77.2653 179.688 69.1392 181.848C63.8925 183.243 54.9612 180.644 53.5152 179.027C51.6344 177.923 49.258 174.094 47.1294 171.628" stroke="#9F6E25" stroke-linecap="round" stroke-linejoin="round"/>
<path d="M25.522 191.31C24.4011 191.282 17.2615 195.36 23.5168 200.627C28.698 204.989 37.4818 195.948 33.5052 190.57C31.699 188.127 28.794 185.963 24.6273 186.1C17.3328 186.341 12.2753 193.616 13.7873 199.965C15.7988 208.411 23.8153 213.171 33.0513 211.569C45.2223 209.457 51.1513 195.921 51.7303 187.721C52.4841 181.897 51.0796 179.074 46.7528 171.249" stroke="#9F6E25" stroke-linecap="round" stroke-linejoin="round"/>
<path d="M209.09 38.115C208.515 37.6518 203.06 37.0088 204.11 42.3664C204.979 46.8041 213.39 45.4118 213.579 40.905C213.665 38.8578 213.058 36.5229 210.82 34.9314C206.903 32.1453 201.187 34.0692 199.298 38.1172C196.787 43.5019 200.06 51.4002 206.06 52.9152C212.452 54.5292 222.078 45.7088 226.488 42.1732C244.933 27.3862 254.658 44.3116 247.748 54.0272C243.355 60.205 229.295 62.454 212.77 60.8436" stroke="#EEBF45" stroke-linecap="round" stroke-linejoin="round"/>
<path d="M297.76 36.6001C297.941 36.2049 300.658 34.4316 301.533 37.5313C302.258 40.0988 297.433 41.5762 296.128 39.2508C295.536 38.1945 295.233 36.8044 295.993 35.3773C297.323 32.879 301.191 32.4479 302.945 34.0271C305.312 36.1568 305.376 41.2447 302.119 43.5421C292.122 50.5946 276.218 51.3633 252.967 52.8784" stroke="#EEBF45" stroke-linecap="round" stroke-linejoin="round"/>
<path d="M40.176 92.0189C40.6117 91.6583 44.7799 91.1105 44.0224 95.2254C43.3949 98.6338 36.9487 97.6522 36.7655 94.2016C36.6823 92.6342 37.1266 90.8394 38.825 89.5976C41.7983 87.4237 46.4327 89.1353 47.6665 91.9216C49.3123 95.6382 46.7118 101.933 42.0352 102.738C33.2022 104.258 21.1902 92.6576 19.8832 89.9056" stroke="#EEBF45" stroke-linecap="round" stroke-linejoin="round"/>
<path d="M8.2127 69.356C7.80182 65.6635 7.93185 63.207 3.4571 61.1067C-2.1148 58.4914 1.8143 50.7527 7.1113 55.4259C12.0376 59.7715 9.1089 64.8348 8.2127 69.3559V69.356Z" fill="#9F6E25" stroke="#EEBF45" stroke-width="0.3" stroke-linecap="round" stroke-linejoin="round"/>
<path d="M9.906 55.782C9.42885 51.4853 9.58078 48.6267 4.3744 46.1837C-2.1084 43.1418 2.4655 34.1357 8.6279 39.5722C14.359 44.6279 10.9499 50.5202 9.9059 55.7822L9.906 55.782Z" fill="#9F6E25" stroke="#EEBF45" stroke-width="0.3" stroke-linecap="round" stroke-linejoin="round"/>
<path d="M6.78119 306.9C6.62374 310.612 6.92142 313.054 2.60069 315.455C-2.77941 318.445 1.66961 325.897 6.63479 320.873C11.2524 316.2 7.98439 311.349 6.78117 306.9L6.78119 306.9Z" fill="#EEBF45" stroke="#EEBF45" stroke-width="0.3" stroke-linecap="round" stroke-linejoin="round"/>
<path d="M9.39861 320.33C9.21635 324.649 9.56338 327.491 4.53631 330.284C-1.72339 333.762 3.45561 342.434 9.23191 336.589C14.6039 331.154 10.7999 325.507 9.39863 320.33L9.39861 320.33Z" fill="#EEBF45" stroke="#EEBF45" stroke-width="0.3" stroke-linecap="round" stroke-linejoin="round"/>
<path d="M41.721 290.24C42.1804 284.332 33.6638 285.315 34.8454 291.75C35.8241 297.08 45.2904 295.482 46.1644 290.149C46.5853 287.582 45.5792 284.259 43.0396 282.599C38.4465 279.597 31.2506 281.746 29.1606 286.584C26.6415 292.416 32.8055 300.452 36.3673 304.375C59.4213 329.765 17.7643 338.231 21.5673 307.021C23.0305 295.015 69.3223 273.273 74.0973 219.626" stroke="#EEBF45" stroke-linecap="round" stroke-linejoin="round"/>
<path d="M83.961 190.15C72.749 189.568 59.41 185.229 49.766 175.654C83.776 210.13 64.819 217.308 83.714 233.761" stroke="#EEBF45" stroke-linecap="round"/>
<path d="M36.595 253.96C52.648 241.149 56.413 247.428 58.325 227.375C59.4105 215.989 62.2472 202.97 50.2621 176.69C85.5391 214.35 51.3379 233.897 57.6212 253.434" stroke="#EEBF45" stroke-linecap="round"/>
<path d="M41.96 234.88C48.5017 234.029 53.007 230.275 58.19 226.827" stroke="#EEBF45"/>
<path d="M54.984 241.14C45.064 263.31 29.843 267.98 16.066 295.71C4.094 333.185 41.727 349.699 61.342 331.565C63.9204 329.181 74.38 314.6 79.501 311.073" stroke="#EEBF45" stroke-linecap="round"/>
<path d="M36.137 107.14C-0.812998 118.042 39.9524 157.607 53.145 179.032L50.8522 177.844C28.4592 152.554 1.5212 116.654 36.1372 107.144L36.137 107.14Z" fill="#EEBF45" stroke="#EEBF45" stroke-width="0.3" stroke-linejoin="round"/>
<path d="M51.137 308.46C65.002 331.415 37.232 339.338 29.498 336.013C30.6467 336.576 21.213 330.42 22.3739 331.556C27.6104 336.679 29.8574 340.216 37.4119 339.608C52.8959 337.575 64.3229 317.725 51.1369 308.461L51.137 308.46Z" fill="#EEBF45" stroke="#EEBF45" stroke-width="0.2"/>
<path d="M32.114 337.15C60.401 356.031 59.488 368.196 61.825 377.494" stroke="#EEBF45" stroke-linecap="round"/>
<path d="M62.067 330.86C72.158 327.654 79.685 330.294 85.305 335.262" stroke="#EEBF45" stroke-linejoin="round"/>
<path d="M317.13 56.3459C269.66 56.5459 196.41 47.2239 184.81 42.4699C-15.58 -28.2301 -14.04 112.92 55.84 112.41" stroke="#EEBF45" stroke-linecap="round"/>
<path d="M77.683 63.681C74.304 62.941 69.6 59.469 66.381 55.446" stroke="#EEBF45" stroke-linecap="round"/>
<path d="M19.861 89.7881C11.179 68.5651 24.466 44.7051 49.977 43.6621" stroke="#EEBF45"/>
<path d="M13.641 71.39C21.126 20.382 107.12 18.174 121.571 73.493" stroke="#EEBF45" stroke-linecap="round"/>
<path d="M13.51 73.449C30.091 9.05704 105.29 43.759 111.06 52.993C147.506 71.491 171.425 56.5235 172.199 35.324C172.624 23.691 153.317 5.60604 139.445 23.206C160.491 7.25104 171.218 31.3739 168.683 42.836C164.42 62.109 132.551 65.73 110.184 52.0294C105.984 39.1574 34.434 6.23844 13.295 71.0844L13.51 73.449Z" fill="#EEBF45" stroke="#EEBF45" stroke-width="0.2"/>
<path d="M241.6 72.2659C231.83 62.0499 200.33 59.9869 180.24 52.3089C109.79 25.3839 80.304 24.5979 57.27 26.3599" stroke="#EEBF45"/>
<path d="M169.08 67.001C161.1 56.501 145.29 45.384 117.13 31.97" stroke="#EEBF45" stroke-linecap="round"/>
<path d="M120.866 75.5901C112.15 77.8642 110.144 81.6463 110.32 85.0058C112.474 86.3036 119.209 84.8902 120.866 75.5901Z" fill="#9F6E25" stroke="#9F6E25" stroke-width="0.4" stroke-linecap="round" stroke-linejoin="round"/>
<path d="M122.139 82.7638C127.31 91.6423 128.143 100.511 122.425 100.881C117.556 101.356 116.536 93.0306 122.139 82.7638Z" fill="#9F6E25" stroke="#9F6E25"/>
<path d="M123.604 75.7273C132.32 78.0027 134.324 81.7849 134.148 85.1441C131.993 86.4417 125.259 85.0273 123.604 75.7273Z" fill="#9F6E25" stroke="#9F6E25" stroke-width="0.4" stroke-linecap="round" stroke-linejoin="round"/>
<path d="M85.9314 237.725C82.5301 246.066 84.3566 249.938 87.1516 251.81C89.4816 250.862 92.3847 244.624 85.9314 237.725Z" fill="#9F6E25" stroke="#EEBF45" stroke-width="0.4" stroke-linecap="round" stroke-linejoin="round"/>
<path d="M92.4379 241.003C102.644 242.183 110.244 246.829 107.115 251.629C104.578 255.812 97.3012 251.64 92.4379 241.003Z" fill="#9F6E25" stroke="#EEBF45"/>
<path d="M87.6814 235.615C94.725 230 98.9545 230.661 101.538 232.814C101.286 235.317 96.1193 239.861 87.6814 235.615Z" fill="#9F6E25" stroke="#EEBF45" stroke-width="0.4" stroke-linecap="round" stroke-linejoin="round"/>
<path d="M260.57 53.4971L270.668 60.5592" stroke="#EEBF45"/>
<path d="M271.79 57.895C285.566 64.3066 293.908 64.0417 300.038 61.7358C299.792 63.466 298.246 68.8206 286.162 66.1341C288.99 68.3984 293.509 69.4929 297.189 71.3377C298.546 72.0183 302.607 76.5658 304.003 78.5237C301.991 78.4044 296.494 78.6662 294.959 77.9042C290.861 75.8705 287.207 71.8258 282.941 70.3465C292.058 79.3322 288.842 82.0715 287.463 84.4705C285.515 74.6839 275.697 68.7075 268.321 61.6735C267.45 58.3569 267.87 57.8731 271.79 57.8947L271.79 57.895Z" fill="#EEBF45" stroke="#9F6E25" stroke-width="0.2" stroke-linecap="round" stroke-linejoin="round"/>
<path d="M88.047 334.81C97.5631 342.958 104.246 344.599 109.626 344.129C109.047 345.448 106.631 349.357 97.631 344.542C99.3741 346.967 102.72 348.839 105.232 351.121C106.159 351.962 108.374 356.474 109.049 358.339C107.477 357.798 103.054 356.786 102.004 355.84C99.2011 353.316 97.1974 349.293 94.1383 347.172C99.384 356.33 96.2221 357.791 94.5949 359.391C95.2198 351.187 88.7496 344.263 84.4539 337.041C84.4978 334.214 84.9388 333.923 88.0472 334.81L88.047 334.81Z" fill="#EEBF45" stroke="#9F6E25" stroke-width="0.2" stroke-linecap="round" stroke-linejoin="round"/>
<path d="M33.1684 257.824C34.271 266.764 31.4959 270.024 28.3087 271.101C26.3074 269.577 25.1362 262.796 33.1684 257.824Z" fill="#EEBF45" stroke="#9F6E25" stroke-width="0.4" stroke-linecap="round" stroke-linejoin="round"/>
<path d="M26.0313 259.288C15.8716 257.758 7.32153 260.257 9.08688 265.707C10.442 270.408 18.5565 268.284 26.0313 259.288Z" fill="#EEBF45" stroke="#9F6E25"/>
<path d="M32.0309 255.331C26.7 248.069 22.4449 247.602 19.3878 249.005C18.9768 251.486 22.7763 257.223 32.0309 255.331Z" fill="#EEBF45" stroke="#9F6E25" stroke-width="0.4" stroke-linecap="round" stroke-linejoin="round"/>
<path d="M17.924 121.27C30.19 107.242 35.383 130.507 25.9773 136.819C13.4613 143.78 32.1069 156.381 37.6233 139.173C41.0282 129.889 39.0778 123.52 33.7825 115.385C29.8392 109.926 27.7254 103.587 31.0568 91.473C33.2776 83.4686 42.7258 83.0074 43.4468 82.9861C53.5828 82.6873 53.5828 89.8511 54.3498 92.7739C55.0173 100.022 50.0617 104.532 46.4204 105.597C34.8544 108.98 37.6611 107.546 34.2224 107.682L33.721 105.721C37.1967 106.231 43.3428 106.345 45.801 104.915C50.2328 102.338 53.049 99.2369 53.1109 92.7735C53.5807 82.9567 35.9799 79.8005 31.9869 91.4726C30.1452 101.804 36.1641 109.596 39.8543 118.544C44.1343 127.616 41.6507 137.197 39.6684 142.332C32.6993 155.332 14.3444 145.463 19.9684 138.986C35.0014 120.817 27.5281 113.052 17.9241 121.269L17.924 121.27Z" fill="#9F6E25" stroke="#EEBF45" stroke-width="0.2"/>
<path d="M241.46 72.1429C245.369 71.5054 249.6 73.1517 249.08 78.8643C249.683 79.0224 250.51 79.0462 251.031 78.9572C249.353 75.5622 253.993 71.5365 257.288 75.5501C261.221 79.152 264.633 77.5147 267.571 77.4085C265.289 82.4693 261.151 81.4039 257.288 81.2493C254.926 82.0512 256.314 84.7411 258.031 84.7184C263.281 83.2089 265.438 89.278 265.217 91.6566C264.729 96.0076 265.531 96.7513 265.899 98.378C263.65 97.2687 261.138 97.305 258.651 97.232C252.74 96.7762 252.616 92.9306 252.332 89.1787C251.928 86.6643 249.452 86.942 249.358 88.9309C249.63 92.3601 251.552 95.4783 245.332 99.2759C245.117 96.2304 245.841 90.8748 244.108 89.9372C241.26 88.1397 240.199 81.8605 246.973 82.2711C246.939 81.8035 246.932 81.0528 246.633 80.5056C242.147 81.1074 240.136 76.3048 241.46 72.1426L241.46 72.1429Z" fill="#D8A628" stroke="#EEBF45" stroke-width="0.2"/>
<path d="M77.364 63.7679C79.7265 60.589 83.9097 58.826 87.513 63.2891C88.0563 62.9826 88.6665 62.424 88.9786 61.9974C85.4107 60.7281 85.939 54.6083 91.0986 55.1959C96.4297 55.0437 97.7394 51.4932 99.7749 49.3716C101.659 54.5935 97.9473 56.7091 95.0659 59.2875C93.9283 61.5075 96.7974 62.4724 98.0145 61.2605C100.732 56.5225 106.506 59.3779 108.003 61.2392C110.682 64.7029 111.775 64.6785 113.171 65.5902C110.785 66.3588 109.007 68.1339 107.17 69.8129C102.609 73.6005 99.8433 70.9259 97.0282 68.4299C94.9879 66.906 93.4036 68.8288 94.721 70.3219C97.3028 72.595 100.854 73.4953 99.0319 80.5519C96.7573 78.5153 93.5489 74.1664 91.6526 74.6992C88.3565 75.3915 83.2239 71.6219 88.373 67.2011C88.0231 66.889 87.4953 66.3552 86.8994 66.1708C84.0975 69.7258 79.3112 67.6773 77.3641 63.7677L77.364 63.7679Z" fill="#D8A628" stroke="#EEBF45" stroke-width="0.2"/>
<path d="M42.378 235.07C41.3135 231.255 38.0415 228.108 33.0765 230.981C32.6794 230.5 32.3102 229.76 32.172 229.25C35.9578 229.345 37.6606 223.443 32.6337 222.14C27.7122 220.085 27.7638 216.301 26.6251 213.591C22.9923 217.789 25.6982 221.095 27.4624 224.536C27.7276 227.016 24.7034 226.887 24.0022 225.319C23.1654 219.921 16.7517 220.515 14.6862 221.715C10.9435 223.987 9.93159 223.572 8.30099 223.922C10.2525 225.495 11.2756 227.79 12.3873 230.017C15.2855 235.189 18.8269 233.685 22.3505 232.365C24.8018 231.675 25.5905 234.038 23.8252 234.959C20.5997 236.154 16.9622 235.721 16.1306 242.961C18.9845 241.876 23.5398 238.968 25.1186 240.146C27.9468 241.975 34.0902 240.298 30.8704 234.324C31.309 234.158 31.9932 233.849 32.6156 233.891C33.9553 238.215 39.1579 238.02 42.3782 235.07L42.378 235.07Z" fill="#D8A628" stroke="#EEBF45" stroke-width="0.2"/>
<path d="M57.083 252.21C54.5077 255.613 53.9465 260.472 59.6505 262.853C59.4974 263.507 59.1037 264.307 58.7566 264.759C56.3669 261.451 50.1962 263.844 52.361 269.004C53.8124 274.564 50.535 276.991 48.9547 279.736C54.925 280.11 55.993 275.631 57.7906 271.873C59.7437 270.026 61.6074 272.703 60.7212 274.328C56.6405 278.569 61.3364 283.679 63.7136 284.667C68.1046 286.392 68.4094 287.53 69.7739 288.699C69.8489 285.999 71.1483 283.624 72.3308 281.218C74.8722 275.357 71.271 273.303 67.8395 271.144C65.6474 269.493 67.1584 267.274 69.1004 268.186C72.2308 270.171 74.2338 273.572 80.9835 269.558C78.1904 267.82 72.7237 265.814 72.7026 263.691C72.424 260.073 66.9758 255.902 63.9568 262.562C63.5284 262.294 62.817 261.909 62.4464 261.348C65.2781 257.377 61.7147 253.045 57.083 252.21L57.083 252.21Z" fill="#D8A628" stroke="#EEBF45" stroke-width="0.2"/>
<path d="M318.497 57.8157C320.085 66.6825 323.699 68.977 327.062 69.0637C328.524 67.0167 327.639 60.1927 318.497 57.8157Z" fill="#EEBF45" stroke="#9F6E25" stroke-width="0.4" stroke-linecap="round" stroke-linejoin="round"/>
<path d="M325.748 57.1052C335.002 52.6427 343.909 52.5034 343.832 58.232C343.927 63.1241 335.547 63.4913 325.748 57.1052Z" fill="#EEBF45" stroke="#9F6E25"/>
<path d="M318.847 55.0972C321.795 46.5852 325.722 44.8811 329.057 45.3186C330.183 47.5681 328.248 54.1715 318.847 55.0972Z" fill="#EEBF45" stroke="#9F6E25" stroke-width="0.4" stroke-linecap="round" stroke-linejoin="round"/>
<path d="M58.175 109.95C73.347 109.109 80.578 104.942 84.897 100.018C85.496 101.66 86.6575 107.111 74.734 110.439C78.2955 111.103 82.7971 109.937 86.912 109.829C88.4299 109.789 94.1546 111.885 96.3095 112.953C94.4789 113.797 89.7548 116.619 88.0414 116.671C83.4684 116.81 78.3393 114.966 73.8794 115.673C86.1564 119.298 84.6114 123.23 84.5264 125.996C78.1941 118.284 66.7184 117.643 56.8974 114.917C54.5651 112.403 54.7075 111.778 58.175 109.949V109.95Z" fill="#EEBF45" stroke="#9F6E25" stroke-width="0.2" stroke-linecap="round" stroke-linejoin="round"/>
<path d="M86.298 187.83C101.47 186.989 108.701 182.822 113.02 177.898C113.619 179.54 114.781 184.991 102.857 188.319C106.419 188.983 110.92 187.817 115.035 187.709C116.553 187.669 122.278 189.765 124.432 190.833C122.602 191.677 117.878 194.499 116.164 194.551C111.591 194.69 106.462 192.846 102.002 193.553C114.279 197.178 112.734 201.11 112.649 203.876C106.317 196.164 94.8413 195.523 85.0203 192.797C82.688 190.283 82.8304 189.658 86.2979 187.829L86.298 187.83Z" fill="#EEBF45" stroke="#9F6E25" stroke-width="0.2" stroke-linecap="round" stroke-linejoin="round"/>
<path d="M81.9451 311.317C88.2528 317.748 92.5316 317.607 95.3587 315.784C95.4131 313.269 90.8376 308.129 81.9451 311.317Z" fill="#EEBF45" stroke="#EEBF45" stroke-width="0.4" stroke-linecap="round" stroke-linejoin="round"/>
<path d="M87.5353 306.644C92.6666 297.743 99.9463 292.61 103.111 297.386C105.945 301.374 99.2288 306.399 87.5353 306.644Z" fill="#EEBF45" stroke="#EEBF45"/>
<path d="M80.7026 308.874C78.342 300.18 80.6262 296.56 83.6281 295.042C85.8256 296.266 87.9476 302.812 80.7026 308.874Z" fill="#EEBF45" stroke="#EEBF45" stroke-width="0.4" stroke-linecap="round" stroke-linejoin="round"/>
<path d="M60.7258 379.235C52.275 382.354 50.65 386.314 51.1545 389.64C53.4261 390.721 59.9892 388.653 60.7258 379.235Z" fill="#9F6E25" stroke="#9F6E25" stroke-width="0.4" stroke-linecap="round" stroke-linejoin="round"/>
<path d="M62.697 386.249C68.7135 394.577 70.4128 403.321 64.7596 404.251C59.96 405.202 58.1286 397.016 62.697 386.249Z" fill="#9F6E25" stroke="#9F6E25"/>
<path d="M63.4637 379.103C72.3606 380.512 74.7271 384.079 74.8813 387.44C72.8643 388.942 66.0238 388.196 63.4637 379.103Z" fill="#9F6E25" stroke="#9F6E25" stroke-width="0.4" stroke-linecap="round" stroke-linejoin="round"/>
<path d="M172.67 66.8149C183.546 77.4259 191.505 79.9379 198.053 79.7919C197.248 81.3431 194.017 85.8838 183.503 79.3475C185.422 82.4204 189.324 84.9496 192.185 87.9087C193.24 89.0004 195.566 94.6357 196.235 96.9456C194.376 96.1668 189.103 94.5938 187.906 93.3664C184.713 90.0905 182.604 85.0641 179.069 82.2554C184.697 93.7534 180.755 95.2724 178.659 97.0804C180.061 87.2008 172.776 78.3114 168.145 69.2314C168.421 65.8133 168.978 65.4959 172.67 66.8144L172.67 66.8149Z" fill="#EEBF45" stroke="#9F6E25" stroke-width="0.2" stroke-linecap="round" stroke-linejoin="round"/>
</g>
<defs>
<clipPath id="clip0">
<rect width="344.33" height="404.82" fill="white"/>
</clipPath>
</defs>
</svg>
