<svg width="625" height="76" viewBox="0 0 625 76" fill="none" xmlns="http://www.w3.org/2000/svg">
<path d="M412.194 45.8956C410.264 46.0265 410.107 49.2125 411.943 49.6237C413.813 50.091 415.765 49.8068 417.668 49.8667C481.235 49.8629 544.802 49.8629 608.37 49.8667C610.187 49.8217 612.034 50.046 613.825 49.6871C614.738 49.5113 615.373 48.6103 615.362 47.7128C615.34 46.4003 614.072 45.6749 612.868 45.7946C548.302 45.8057 483.733 45.7946 419.164 45.8019C416.845 45.862 414.508 45.6302 412.194 45.8956Z" fill="#E6AB52"/>
<path d="M212.806 45.8956C214.736 46.0265 214.893 49.2125 213.057 49.6237C211.187 50.091 209.235 49.8068 207.332 49.8667C143.765 49.8629 80.1975 49.8629 16.6302 49.8667C14.813 49.8217 12.9658 50.046 11.1747 49.6871C10.2623 49.5113 9.62676 48.6103 9.63788 47.7128C9.66036 46.4003 10.9279 45.6749 12.132 45.7946C76.6977 45.8057 141.267 45.7946 205.836 45.8019C208.155 45.862 210.492 45.6302 212.806 45.8956Z" fill="#E6AB52"/>
<path d="M398.931 47.6494C398.755 50.5288 401.993 53.034 404.715 51.9011C406.884 51.2279 408.111 48.7975 407.508 46.6363C407.071 44.976 405.56 43.5887 403.814 43.4953C401.357 43.0651 398.912 45.1629 398.931 47.6494ZM405.493 47.0849C406.151 48.5992 404.431 50.4391 402.857 50.0577C401.795 49.822 400.946 48.7864 400.98 47.6908C401.088 46.5653 402.053 45.638 403.126 45.4213C404.15 45.4284 405.157 46.1051 405.493 47.0849Z" fill="#EFA12D"/>
<path d="M226.069 47.6494C226.245 50.5288 223.007 53.034 220.285 51.9011C218.116 51.2279 216.889 48.7975 217.492 46.6363C217.929 44.976 219.44 43.5887 221.186 43.4953C223.643 43.0651 226.088 45.1629 226.069 47.6494ZM219.507 47.0849C218.849 48.5992 220.569 50.4391 222.143 50.0577C223.205 49.822 224.054 48.7864 224.02 47.6908C223.912 46.5653 222.947 45.638 221.874 45.4213C220.85 45.4284 219.843 46.1051 219.507 47.0849Z" fill="#EFA12D"/>
<path d="M312.5 56.1717C313.534 56.1114 314.566 56.0215 315.594 55.902C327.058 54.7352 337.94 50.2294 347.725 44.2879C352.586 41.3899 356.916 37.6995 361.762 34.7752C366.571 31.8398 371.967 29.5515 377.665 29.3757C383.828 29.4917 389.803 33.1748 392.622 38.6639C394.769 42.7958 394.971 47.7429 393.759 52.1888C393.048 54.956 391.781 57.6744 389.642 59.6262C387.627 61.4583 384.856 62.3297 382.152 62.2325C378.495 62.3371 374.528 60.8826 372.524 57.6744C370.217 54.1035 371.155 48.6179 374.936 46.438C377.59 44.8638 380.933 45.3124 383.603 46.6024C384.901 47.2044 385.211 48.7449 386.172 49.6985C386.471 48.7151 386.853 47.6755 386.55 46.6547C386.112 45.0394 384.826 43.783 383.375 43.0201C381.135 41.7935 378.436 41.644 375.979 42.2124C372.505 43.0575 369.719 46.075 369.061 49.575C368.613 52.1588 368.916 54.9482 370.314 57.2104C372.18 60.4525 375.882 62.2883 379.52 62.5988C382.164 62.6622 384.897 62.838 387.425 61.8958C391.269 60.6245 394.29 57.3938 395.606 53.6021C397.098 49.2721 397.165 44.4448 395.696 40.0997C393.852 34.6029 389.257 30.2394 383.813 28.3434C380.952 27.2105 377.804 27.2964 374.79 27.547C367.539 28.6576 361.157 32.6287 355.383 36.9475C351.756 39.722 348.05 42.4068 344.098 44.7138C334.492 50.3437 323.675 54.4345 312.5 55.0603C301.325 54.4347 290.508 50.344 280.902 44.7138C276.95 42.4066 273.244 39.7218 269.617 36.9475C263.844 32.6287 257.461 28.6576 250.21 27.547C247.196 27.2964 244.048 27.2105 241.187 28.3434C235.743 30.2391 231.148 34.6029 229.304 40.0997C227.834 44.4448 227.902 49.2721 229.394 53.6021C230.71 57.3938 233.731 60.6245 237.575 61.8958C240.103 62.8382 242.836 62.6624 245.48 62.5988C249.118 62.2883 252.82 60.4525 254.686 57.2104C256.084 54.9482 256.388 52.1588 255.939 49.575C255.281 46.075 252.495 43.0575 249.021 42.2124C246.564 41.644 243.865 41.7935 241.625 43.0201C240.174 43.783 238.888 45.0394 238.45 46.6547C238.147 47.6755 238.529 48.7151 238.828 49.6985C239.789 48.7449 240.099 47.2044 241.397 46.6024C244.067 45.3124 247.41 44.8638 250.064 46.438C253.845 48.6179 254.783 54.1035 252.476 57.6744C250.472 60.8826 246.505 62.3371 242.847 62.2325C240.144 62.3297 237.373 61.4583 235.358 59.6262C233.219 57.6744 231.951 54.956 231.241 52.1888C230.03 47.7429 230.231 42.7958 232.378 38.6639C235.197 33.1748 241.172 29.4914 247.335 29.3757C253.033 29.5515 258.429 31.8398 263.238 34.7752C268.084 37.6992 272.414 41.3899 277.275 44.2879C287.06 50.2294 297.942 54.7352 309.406 55.902C310.434 56.0215 311.466 56.1114 312.5 56.1717ZM312.5 52.2958C318.137 52.1171 323.86 50.153 327.87 46.094C331.31 42.5117 333.666 37.9948 337.439 34.7153C339.35 32.9168 341.63 31.6155 343.788 30.1573C341.481 29.9441 339.222 29.3383 336.904 29.2113C333.385 29.1739 329.736 29.3123 326.49 30.8266C321.678 32.9916 318.245 37.3143 313.429 39.4643C313.122 39.5898 312.813 39.7074 312.5 39.8176C312.188 39.7074 311.878 39.5895 311.571 39.4643C306.755 37.3143 303.322 32.9919 298.51 30.8266C295.264 29.3121 291.615 29.1739 288.096 29.2113C285.778 29.3383 283.52 29.9441 281.212 30.1573C283.37 31.6155 285.651 32.9168 287.562 34.7153C291.334 37.9945 293.69 42.5117 297.13 46.094C301.14 50.153 306.863 52.1169 312.5 52.2958ZM312.5 42.3406C313.929 41.882 315.298 41.2562 316.544 40.4065C320.84 37.6618 323.887 33.1861 328.696 31.2229C332.996 29.6339 337.741 29.3459 342.18 30.5349C339.043 32.5354 335.984 34.7153 333.426 37.4413C329.937 41.1732 326.793 45.5741 321.935 47.6421C318.954 48.9349 315.746 49.6739 312.5 49.8757C309.253 49.6739 306.045 48.9352 303.064 47.6421C298.206 45.5744 295.062 41.1732 291.573 37.4413C289.015 34.7153 285.957 32.5354 282.819 30.5349C287.258 29.3459 292.003 29.6336 296.303 31.2229C301.112 33.1861 304.159 37.6618 308.456 40.4065C309.702 41.2564 311.071 41.8823 312.5 42.3406ZM312.5 38.326C315.259 36.3929 317.406 33.5798 318.574 30.4154C320.298 25.7639 320.092 20.0426 316.854 16.0867C315.692 14.628 314.181 13.5124 312.5 12.7656C310.819 13.5124 309.308 14.6278 308.146 16.0867C304.907 20.0428 304.702 25.7639 306.426 30.4154C307.594 33.5796 309.741 36.3929 312.5 38.326ZM312.5 13.705C314.496 14.7155 316.196 16.2899 317.228 18.304C318.667 20.8428 318.813 23.8643 318.507 26.706C317.933 30.7261 315.705 34.4863 312.5 36.9636C309.295 34.4863 307.067 30.7261 306.493 26.706C306.186 23.8643 306.332 20.8428 307.772 18.304C308.804 16.2899 310.504 14.7155 312.5 13.705Z" fill="#EFA12D"/>
<path d="M361.845 54.5336C361.1 52.7313 359.339 51.6583 357.75 50.6822C352.605 47.7395 346.267 47.8403 340.733 49.5491C337.768 50.5026 334.776 51.632 332.29 53.5613C339.675 53.3706 346.312 57.035 353.39 58.5046C355.559 58.9047 357.874 58.8411 359.926 57.9961C361.246 57.4763 362.413 55.9845 361.845 54.5336ZM353.899 56.3247C347.583 55.188 341.469 52.6004 334.959 52.7874C339.035 51.2392 343.384 50.2223 347.759 50.2708C352.171 50.4428 356.909 51.8487 359.777 55.401C358.031 56.478 355.892 56.6351 353.899 56.3247Z" fill="#EFA12D"/>
<path d="M263.155 54.5336C263.899 52.7313 265.661 51.6583 267.25 50.6822C272.395 47.7395 278.733 47.8403 284.267 49.5491C287.232 50.5026 290.224 51.632 292.71 53.5613C285.325 53.3706 278.688 57.035 271.61 58.5046C269.441 58.9047 267.126 58.8411 265.074 57.9961C263.753 57.4763 262.587 55.9845 263.155 54.5336ZM271.101 56.3247C277.417 55.188 283.531 52.6004 290.04 52.7874C285.965 51.2392 281.616 50.2223 277.241 50.2708C272.829 50.4428 268.091 51.8487 265.223 55.401C266.969 56.478 269.108 56.6351 271.101 56.3247Z" fill="#EFA12D"/>
</svg>
